<?xml version="1.0" encoding="UTF-8" standalone="no"?>
<svg width="72px" height="72px" viewBox="0 0 72 72" version="1.1" xmlns="http://www.w3.org/2000/svg" xmlns:xlink="http://www.w3.org/1999/xlink">
    <!-- Generator: Sketch 43.2 (39069) - http://www.bohemiancoding.com/sketch -->
    <title>angry</title>
    <desc>Created with Sketch.</desc>
    <defs></defs>
    <g id="Page-1" stroke="none" stroke-width="1" fill="none" fill-rule="evenodd">
        <g id="Mobile-Portrait-Copy-6" transform="translate(-124.000000, -398.000000)" fill-rule="nonzero" fill="#FFFFFF">
            <g id="angry" transform="translate(124.000000, 398.000000)">
                <path d="M70.72,26.16 C69.12,20.32 66.0266667,15.12 61.44,10.56 C54.4266667,3.52 45.9466667,0 36,0 C26.0533333,0 17.56,3.52 10.52,10.56 C5.96,15.12 2.86666667,20.32 1.24,26.16 C0.413333333,29.28 0,32.56 0,36 C0,45.9466667 3.50666667,54.44 10.52,61.48 C17.56,68.4933333 26.0533333,72 36,72 C45.9466667,72 54.4266667,68.4933333 61.44,61.48 C68.48,54.44 72,45.9466667 72,36 C72,32.56 71.5733333,29.28 70.72,26.16 L70.72,26.16 Z M64.4,26.16 C65.44,29.2533333 65.96,32.5333333 65.96,36 C65.96,44.2933333 63.0266667,51.3466667 57.16,57.16 C51.32,63.0266667 44.2666667,65.96 36,65.96 C27.7333333,65.96 20.68,63.0266667 14.84,57.16 C9,51.3466667 6.08,44.2933333 6.08,36 C6.08,32.5333333 6.61333333,29.2533333 7.68,26.16 C9.09333333,22 11.48,18.2266667 14.84,14.84 C20.68,9.02666667 27.7333333,6.12 36,6.12 C44.2666667,6.12 51.32,9.02666667 57.16,14.84 C60.5466667,18.2266667 62.96,22 64.4,26.16 L64.4,26.16 Z M36,58.2 C38.72,58.2 41,57.1733333 42.84,55.12 C44.6533333,53.1733333 45.56,50.8 45.56,48 C45.56,45.12 44.6533333,42.6666667 42.84,40.64 C41,38.72 38.72,37.76 36,37.76 C33.36,37.76 31.12,38.72 29.28,40.64 C27.3866667,42.6666667 26.44,45.12 26.44,48 C26.44,50.8 27.3866667,53.1733333 29.28,55.12 C31.12,57.1733333 33.36,58.2 36,58.2 L36,58.2 Z M15.84,29.72 C15.84,31.08 16.3066667,32.2266667 17.24,33.16 C18.2266667,34.1466667 19.4,34.64 20.76,34.64 C22.12,34.64 23.2666667,34.1466667 24.2,33.16 C25.16,32.2266667 25.64,31.08 25.64,29.72 C25.64,28.3333333 25.16,27.16 24.2,26.2 L24.16,26.16 C23.2266667,25.2533333 22.0933333,24.8 20.76,24.8 C19.4266667,24.8 18.2666667,25.2533333 17.28,26.16 L17.24,26.2 C16.3066667,27.16 15.84,28.3333333 15.84,29.72 L15.84,29.72 Z M47.68,26.2 C46.7466667,27.16 46.28,28.3333333 46.28,29.72 C46.28,31.08 46.7466667,32.2266667 47.68,33.16 C48.6666667,34.1466667 49.84,34.64 51.2,34.64 C52.56,34.64 53.7066667,34.1466667 54.64,33.16 C55.6,32.2266667 56.08,31.08 56.08,29.72 C56.08,28.3333333 55.6,27.16 54.64,26.2 L54.6,26.16 C53.6666667,25.2533333 52.5333333,24.8 51.2,24.8 C49.8666667,24.8 48.7066667,25.2533333 47.72,26.16 L47.68,26.2 Z" id="Shape"></path>
            </g>
        </g>
    </g>
</svg>