<?xml version="1.0" encoding="UTF-8" standalone="no"?>
<svg width="31px" height="27px" viewBox="0 0 31 27" version="1.1" xmlns="http://www.w3.org/2000/svg" xmlns:xlink="http://www.w3.org/1999/xlink">
    <!-- Generator: Sketch 43.2 (39069) - http://www.bohemiancoding.com/sketch -->
    <title>Don’t stop me now Copy 2</title>
    <desc>Created with Sketch.</desc>
    <defs></defs>
    <g id="Page-1" stroke="none" stroke-width="1" fill="none" fill-rule="evenodd">
        <g id="Mobile-Portrait-Copy-6" transform="translate(-73.000000, -29.000000)" fill="#FFFFFF">
            <path d="M74.3727121,35.893617 L74.3727121,29.4371624 L76.6162946,29.4371624 C77.4844041,29.4430668 78.1354765,29.8061834 78.5695312,30.526523 C78.7249698,30.7686044 78.8232172,31.0224908 78.8642764,31.2881898 C78.8965372,31.5538889 78.9126674,32.0129509 78.9126674,32.6653897 C78.9126674,33.3591594 78.887739,33.8433149 78.8378813,34.1178706 C78.8144189,34.2566245 78.7792258,34.3806156 78.732301,34.4898474 C78.6824433,34.596127 78.6223218,34.7068333 78.5519345,34.8219695 C78.3642352,35.1260473 78.1032197,35.3769816 77.7688802,35.5747798 C77.4374735,35.787339 77.0312865,35.893617 76.5503069,35.893617 L74.3727121,35.893617 Z M75.3449312,30.3626761 L75.3449312,34.9681033 L76.5063151,34.9681033 C77.0518163,34.9681033 77.4477387,34.7806407 77.6940941,34.4057098 C77.8026078,34.2669558 77.8715276,34.0913019 77.9008557,33.8787426 C77.9272509,33.6691356 77.9404483,33.2764973 77.9404483,32.7008161 C77.9404483,32.1398958 77.9272509,31.7384011 77.9008557,31.4963197 C77.865662,31.2542384 77.7820784,31.0579192 77.6501023,30.9073564 C77.3802845,30.5324255 76.9990259,30.3508672 76.5063151,30.3626761 L75.3449312,30.3626761 Z M79.7397135,33.5909034 C79.7397135,33.1067407 79.7793058,32.7347676 79.8584914,32.474973 C79.9406099,32.2210828 80.0667185,32.0070506 80.2368211,31.8328702 C80.3629316,31.6793552 80.5388971,31.5420794 80.7647228,31.4210387 C80.9876158,31.3059024 81.2735598,31.245383 81.6225632,31.2394786 C81.9832979,31.245383 82.2751074,31.3059024 82.4980004,31.4210387 C82.7179605,31.5420794 82.8880605,31.6793552 83.0083054,31.8328702 C83.1901392,32.0070506 83.3191805,32.2210828 83.3954334,32.474973 C83.4687535,32.7347676 83.5054129,33.1067407 83.5054129,33.5909034 C83.5054129,34.0750661 83.4687535,34.4440871 83.3954334,34.6979773 C83.3191805,34.9518675 83.1901392,35.1718039 83.0083054,35.3577933 C82.9496494,35.4256941 82.8777968,35.4921179 82.7927455,35.5570666 C82.7164927,35.6308719 82.6182453,35.6943435 82.4980004,35.7474833 C82.2751074,35.8744284 81.9832979,35.9408521 81.6225632,35.9467566 C81.2735598,35.9408521 80.9876158,35.8744284 80.7647228,35.7474833 C80.5388971,35.632347 80.3629316,35.5024517 80.2368211,35.3577933 C80.0667185,35.1718039 79.9406099,34.9518675 79.8584914,34.6979773 C79.7793058,34.4440871 79.7397135,34.0750661 79.7397135,33.5909034 Z M82.585984,33.59976 C82.585984,33.2720645 82.5713202,33.032939 82.5419922,32.8823762 C82.5126642,32.7377178 82.4525426,32.6107746 82.3616257,32.5015428 C82.2941713,32.3982154 82.1944575,32.3170307 82.0624814,32.2579865 C81.9363709,32.1959901 81.789733,32.1649923 81.6225632,32.1649923 C81.4671247,32.1649923 81.3234196,32.1959901 81.1914435,32.2579865 C81.065333,32.3170307 80.9626864,32.3982154 80.8835007,32.5015428 C80.8043151,32.6107746 80.7471263,32.7377178 80.7119327,32.8823762 C80.676739,33.032939 80.6591425,33.2691124 80.6591425,33.5909034 C80.6591425,33.9097423 80.676739,34.1429635 80.7119327,34.2905741 C80.7471263,34.4411369 80.8043151,34.5739844 80.8835007,34.6891207 C80.9626864,34.777687 81.065333,34.8559195 81.1914435,34.9238203 C81.3234196,34.988769 81.4671247,35.0212428 81.6225632,35.0212428 C81.789733,35.0212428 81.9363709,34.988769 82.0624814,34.9238203 C82.1944575,34.8559195 82.2941713,34.777687 82.3616257,34.6891207 C82.4525426,34.5739844 82.5126642,34.4411369 82.5419922,34.2905741 C82.5713202,34.1429635 82.585984,33.9126945 82.585984,33.59976 Z M84.4688337,35.893617 L85.3882626,35.893617 L85.3882626,33.1569305 C85.3882626,32.8351394 85.474779,32.5901095 85.6478144,32.4218334 C85.8179169,32.2506052 86.034941,32.1649923 86.2988932,32.1649923 C86.5628454,32.1649923 86.7784032,32.2506052 86.9455729,32.4218334 C87.1156755,32.5901095 87.2007254,32.8351394 87.2007254,33.1569305 L87.2007254,35.893617 L88.1201544,35.893617 L88.1201544,32.8380932 C88.1054904,32.3125995 87.9427223,31.9140569 87.6318452,31.6424535 C87.3180354,31.3738022 86.9719699,31.2394786 86.5936384,31.2394786 C86.1038604,31.2394786 85.707938,31.4210369 85.4058594,31.7841589 L85.3882626,31.7841589 L85.3882626,31.2970464 L84.4688337,31.2970464 L84.4688337,35.893617 Z M89.3343285,31.0313487 L90.2537574,30.3626761 L90.2537574,29.4371624 L89.3343285,29.4371624 L89.3343285,31.0313487 Z M91.357952,31.2970464 L90.9004371,31.2970464 L90.9004371,32.0011454 L91.357952,32.0011454 L91.357952,34.7599734 C91.357952,35.1230954 91.4635313,35.4005992 91.6746931,35.5924929 C91.8799892,35.7932433 92.1439375,35.893617 92.4665458,35.893617 L92.9460565,35.893617 L92.9460565,35.0212428 L92.6029204,35.0212428 C92.3800274,35.0271473 92.2715153,34.9134888 92.277381,34.6802641 L92.277381,32.0011454 L92.9460565,32.0011454 L92.9460565,31.2970464 L92.277381,31.2970464 L92.277381,29.8977051 L91.357952,29.8977051 L91.357952,31.2970464 Z M74.4255022,44.3834644 L73.7832217,45.0167106 C74.3785806,45.565822 75.0487159,45.8403736 75.7936477,45.8403736 C76.3420817,45.8344692 76.7922601,45.707526 77.1441964,45.4595402 C77.4990655,45.2174588 77.6794302,44.8735313 77.6852958,44.4277474 C77.6852958,44.0469121 77.5870484,43.7325062 77.3905506,43.4845204 C77.1793888,43.2306302 76.8362561,43.085974 76.3611421,43.0505475 L75.6044829,42.9929797 C75.3815899,42.969362 75.2261537,42.9147469 75.1381696,42.8291327 C75.0413872,42.7523752 74.9959294,42.6623341 75.001795,42.5590067 C75.001795,42.3966351 75.0619166,42.2637875 75.1821615,42.1604601 C75.2965408,42.0571327 75.4974347,42.0054698 75.7848493,42.0054698 C76.0370703,42.0054698 76.25996,42.0423719 76.4535249,42.1161772 C76.6500227,42.1988391 76.8362528,42.303641 77.012221,42.4305861 L77.5797154,41.7619135 C77.3568224,41.5670676 77.1046052,41.4120788 76.8230562,41.2969425 C76.6764161,41.2438027 76.5195135,41.2024724 76.3523437,41.1729503 C76.185174,41.1463804 75.9960111,41.1330956 75.7848493,41.1330956 C75.2980041,41.1330956 74.8962162,41.2511823 74.5794736,41.4873592 C74.2539325,41.7235362 74.0882317,42.0777963 74.0823661,42.5501501 C74.0882317,42.9427943 74.2143403,43.2483436 74.4606957,43.4668073 C74.7011855,43.6911754 75.0135242,43.8210707 75.3977214,43.8564973 L76.2071708,43.92735 C76.3772733,43.9332544 76.5136466,43.9701565 76.6162946,44.0380574 C76.7160099,44.103006 76.7658668,44.2181406 76.7658668,44.3834644 C76.7658668,44.5694537 76.6822832,44.7141099 76.5151135,44.8174374 C76.3479437,44.9207648 76.132386,44.9724277 75.8684338,44.9724277 C75.2789405,44.9724277 74.7979681,44.7761086 74.4255022,44.3834644 Z M78.6663132,41.1906634 L78.2087984,41.1906634 L78.2087984,41.8947624 L78.6663132,41.8947624 L78.6663132,44.6535904 C78.6663132,45.0167125 78.7718925,45.2942162 78.9830543,45.48611 C79.1883505,45.6868604 79.4522987,45.787234 79.774907,45.787234 L80.2544178,45.787234 L80.2544178,44.9148599 L79.9112816,44.9148599 C79.6883886,44.9207643 79.5798766,44.8071058 79.5857422,44.5738811 L79.5857422,41.8947624 L80.2544178,41.8947624 L80.2544178,41.1906634 L79.5857422,41.1906634 L79.5857422,39.7913221 L78.6663132,39.7913221 L78.6663132,41.1906634 Z M80.8922991,43.4845204 C80.8922991,43.0003577 80.9318913,42.6283846 81.011077,42.36859 C81.0931955,42.1146998 81.2193041,41.9006677 81.3894066,41.7264872 C81.5155171,41.5729722 81.6914826,41.4356964 81.9173084,41.3146557 C82.1402014,41.1995195 82.4261453,41.139 82.7751488,41.1330956 C83.1358835,41.139 83.427693,41.1995195 83.6505859,41.3146557 C83.8705461,41.4356964 84.0406461,41.5729722 84.160891,41.7264872 C84.3427247,41.9006677 84.4717661,42.1146998 84.548019,42.36859 C84.621339,42.6283846 84.6579985,43.0003577 84.6579985,43.4845204 C84.6579985,43.9686832 84.621339,44.3377041 84.548019,44.5915943 C84.4717661,44.8454845 84.3427247,45.065421 84.160891,45.2514103 C84.1022349,45.3193112 84.0303824,45.3857349 83.9453311,45.4506836 C83.8690782,45.5244889 83.7708308,45.5879605 83.6505859,45.6411003 C83.427693,45.7680454 83.1358835,45.8344692 82.7751488,45.8403736 C82.4261453,45.8344692 82.1402014,45.7680454 81.9173084,45.6411003 C81.6914826,45.525964 81.5155171,45.3960687 81.3894066,45.2514103 C81.2193041,45.065421 81.0931955,44.8454845 81.011077,44.5915943 C80.9318913,44.3377041 80.8922991,43.9686832 80.8922991,43.4845204 Z M83.7385696,43.493377 C83.7385696,43.1656815 83.7239058,42.926556 83.6945778,42.7759932 C83.6652497,42.6313348 83.6051282,42.5043916 83.5142113,42.3951598 C83.4467569,42.2918324 83.3470431,42.2106478 83.215067,42.1516035 C83.0889565,42.0896071 82.9423185,42.0586093 82.7751488,42.0586093 C82.6197103,42.0586093 82.4760051,42.0896071 82.344029,42.1516035 C82.2179185,42.2106478 82.115272,42.2918324 82.0360863,42.3951598 C81.9569006,42.5043916 81.8997119,42.6313348 81.8645182,42.7759932 C81.8293246,42.926556 81.8117281,43.1627294 81.8117281,43.4845204 C81.8117281,43.8033593 81.8293246,44.0365805 81.8645182,44.1841911 C81.8997119,44.3347539 81.9569006,44.4676014 82.0360863,44.5827377 C82.115272,44.671304 82.2179185,44.7495365 82.344029,44.8174374 C82.4760051,44.882386 82.6197103,44.9148599 82.7751488,44.9148599 C82.9423185,44.9148599 83.0889565,44.882386 83.215067,44.8174374 C83.3470431,44.7495365 83.4467569,44.671304 83.5142113,44.5827377 C83.6051282,44.4676014 83.6652497,44.3347539 83.6945778,44.1841911 C83.7239058,44.0365805 83.7385696,43.8063115 83.7385696,43.493377 Z M85.6214193,47.6471181 L85.6214193,41.1906634 L86.5408482,41.1906634 L86.5408482,41.6689193 C86.8458597,41.3264628 87.2388493,41.1478567 87.7198289,41.1330956 C88.2799941,41.1478567 88.6891139,41.348604 88.9472005,41.7353438 C89.073311,41.8800021 89.1598274,42.0704169 89.2067522,42.3065939 C89.2507443,42.5398186 89.27274,42.935409 89.27274,43.493377 C89.27274,44.036584 89.2507443,44.4262701 89.2067522,44.662447 C89.1598274,44.898624 89.073311,45.0919909 88.9472005,45.2425537 C88.82109,45.4196864 88.6553892,45.5613904 88.450093,45.6676701 C88.2477296,45.7769019 88.0043107,45.8344692 87.7198289,45.8403736 C87.4852047,45.8403736 87.2755125,45.7887107 87.0907459,45.6853832 C86.8913153,45.5909125 86.7080179,45.4610171 86.5408482,45.2956933 L86.5408482,47.6471181 L85.6214193,47.6471181 Z M87.4426804,44.9148599 C87.6597078,44.9148599 87.8312742,44.8735295 87.9573847,44.7908676 C88.0834952,44.7052534 88.1729443,44.5960232 88.2257347,44.4631737 C88.2843908,44.3244198 88.323983,44.1709071 88.3445126,44.002631 C88.3503783,43.8373072 88.353311,43.6675575 88.353311,43.493377 C88.353311,43.3103399 88.3503783,43.1317338 88.3445126,42.9575533 C88.323983,42.7833728 88.2843908,42.6298601 88.2257347,42.4970106 C88.1729443,42.3582566 88.0834952,42.2490264 87.9573847,42.1693167 C87.8312742,42.0955114 87.6597078,42.0586093 87.4426804,42.0586093 C87.2373843,42.0586093 87.0746162,42.1014158 86.9543713,42.1870299 C86.8282608,42.272644 86.7358789,42.3848264 86.6772228,42.5235803 C86.6214996,42.6623343 86.5848401,42.8128948 86.5672433,42.9752665 C86.5496465,43.1464948 86.5408482,43.3191965 86.5408482,43.493377 C86.5408482,43.6557487 86.5496465,43.8181179 86.5672433,43.9804895 C86.5848401,44.1517178 86.6214996,44.3067066 86.6772228,44.4454605 C86.7358789,44.5842145 86.8282608,44.6963969 86.9543713,44.782011 C87.0746162,44.8705773 87.2373843,44.9148599 87.4426804,44.9148599 Z M92.5105376,45.787234 L93.4299665,45.787234 L93.4299665,43.0505475 C93.4299665,42.7287564 93.5179493,42.4837265 93.6939174,42.3154505 C93.8610871,42.1442222 94.0766449,42.0586093 94.3405971,42.0586093 C94.6045493,42.0586093 94.8215734,42.1442222 94.991676,42.3154505 C95.1588457,42.4837265 95.2424293,42.7287564 95.2424293,43.0505475 L95.2424293,45.787234 L96.1618583,45.787234 L96.1618583,43.0505475 C96.1618583,42.7287564 96.2483746,42.4837265 96.42141,42.3154505 C96.5915125,42.1442222 96.8085366,42.0586093 97.0724888,42.0586093 C97.3364411,42.0586093 97.5519988,42.1442222 97.7191685,42.3154505 C97.8863383,42.4837265 97.9699219,42.7287564 97.9699219,43.0505475 L97.9699219,45.787234 L98.8893508,45.787234 L98.8893508,42.7317102 C98.8776196,42.2062166 98.7163179,41.807674 98.4054408,41.5360705 C98.091631,41.2674192 97.7455655,41.1330956 97.367234,41.1330956 C96.7660095,41.1271912 96.2865035,41.3279386 95.9287016,41.7353438 C95.7703303,41.5582111 95.5958312,41.4120788 95.405199,41.2969425 C95.2116341,41.1936151 94.9564841,41.139 94.6397414,41.1330956 C94.1470306,41.1330956 93.7496419,41.3146539 93.4475632,41.6777759 L93.4299665,41.6777759 L93.4299665,41.1906634 L92.5105376,41.1906634 L92.5105376,45.787234 Z M103.67566,43.8387841 L100.82939,43.8387841 C100.82939,44.2078105 100.934969,44.4882664 101.146131,44.6801602 C101.342629,44.8750062 101.600711,44.9724277 101.920387,44.9724277 C102.292853,44.9724277 102.625721,44.8233432 102.919001,44.5251699 L103.583278,45.09642 C103.116962,45.5982959 102.568536,45.846278 101.937984,45.8403736 C101.697494,45.8403736 101.462873,45.8049476 101.234115,45.7340945 C101.119735,45.6957157 101.00829,45.6440528 100.899777,45.5791042 C100.785397,45.5230121 100.678352,45.4536362 100.578637,45.3709743 C100.385072,45.199746 100.228169,44.9606204 100.107924,44.6535904 C99.975948,44.3583693 99.9099609,43.9745875 99.9099609,43.5022336 C99.9099609,43.047593 99.9671497,42.6697156 100.081529,42.36859 C100.195908,42.06156 100.342546,41.8194823 100.521447,41.6423496 C100.703281,41.4622647 100.907108,41.3323693 101.132933,41.2526596 C101.355826,41.1729499 101.575783,41.1330956 101.792811,41.1330956 C102.314849,41.139 102.75623,41.3117018 103.116964,41.6512062 C103.483565,41.9966149 103.669795,42.4719139 103.67566,43.0771173 L103.67566,43.8387841 Z M100.82939,43.0771173 L102.756231,43.0771173 C102.7445,42.7198997 102.649186,42.4497763 102.470285,42.2667392 C102.294316,42.0925587 102.068494,42.0054698 101.792811,42.0054698 C101.517127,42.0054698 101.291305,42.0925587 101.115337,42.2667392 C100.942301,42.4497763 100.846987,42.7198997 100.82939,43.0771173 Z M74.2891276,55.6808511 L75.2085565,55.6808511 L75.2085565,52.9441645 C75.2085565,52.6223734 75.2950729,52.3773436 75.4681083,52.2090675 C75.6382108,52.0378392 75.8552349,51.9522264 76.1191871,51.9522264 C76.3831393,51.9522264 76.5986971,52.0378392 76.7658668,52.2090675 C76.9359694,52.3773436 77.0210193,52.6223734 77.0210193,52.9441645 L77.0210193,55.6808511 L77.9404483,55.6808511 L77.9404483,52.6253273 C77.9257843,52.0998336 77.7630162,51.701291 77.4521391,51.4296875 C77.1383293,51.1610362 76.7922638,51.0267126 76.4139323,51.0267126 C75.9241543,51.0267126 75.5282319,51.2082709 75.2261533,51.571393 L75.2085565,51.571393 L75.2085565,51.0842805 L74.2891276,51.0842805 L74.2891276,55.6808511 Z M78.903869,53.3781375 C78.903869,52.8939748 78.9434613,52.5220017 79.0226469,52.262207 C79.1047654,52.0083168 79.230874,51.7942847 79.4009766,51.6201042 C79.5270871,51.4665892 79.7030526,51.3293134 79.9288783,51.2082727 C80.1517713,51.0931365 80.4377153,51.032617 80.7867187,51.0267126 C81.1474534,51.032617 81.4392629,51.0931365 81.6621559,51.2082727 C81.8821161,51.3293134 82.052216,51.4665892 82.1724609,51.6201042 C82.3542947,51.7942847 82.4833361,52.0083168 82.5595889,52.262207 C82.632909,52.5220017 82.6695685,52.8939748 82.6695685,53.3781375 C82.6695685,53.8623002 82.632909,54.2313211 82.5595889,54.4852113 C82.4833361,54.7391015 82.3542947,54.959038 82.1724609,55.1450273 C82.1138049,55.2129282 82.0419523,55.279352 81.956901,55.3443006 C81.8806482,55.4181059 81.7824008,55.4815775 81.6621559,55.5347173 C81.4392629,55.6616624 81.1474534,55.7280862 80.7867187,55.7339906 C80.4377153,55.7280862 80.1517713,55.6616624 79.9288783,55.5347173 C79.7030526,55.4195811 79.5270871,55.2896857 79.4009766,55.1450273 C79.230874,54.959038 79.1047654,54.7391015 79.0226469,54.4852113 C78.9434613,54.2313211 78.903869,53.8623002 78.903869,53.3781375 Z M81.7501395,53.3869941 C81.7501395,53.0592986 81.7354757,52.820173 81.7061477,52.6696102 C81.6768197,52.5249518 81.6166981,52.3980086 81.5257812,52.2887768 C81.4583268,52.1854494 81.358613,52.1042648 81.2266369,52.0452206 C81.1005264,51.9832241 80.9538885,51.9522264 80.7867187,51.9522264 C80.6312802,51.9522264 80.4875751,51.9832241 80.355599,52.0452206 C80.2294885,52.1042648 80.1268419,52.1854494 80.0476562,52.2887768 C79.9684706,52.3980086 79.9112818,52.5249518 79.8760882,52.6696102 C79.8408945,52.820173 79.823298,53.0563464 79.823298,53.3781375 C79.823298,53.6969763 79.8408945,53.9301976 79.8760882,54.0778081 C79.9112818,54.2283709 79.9684706,54.3612185 80.0476562,54.4763547 C80.1268419,54.5649211 80.2294885,54.6431535 80.355599,54.7110544 C80.4875751,54.776003 80.6312802,54.8084769 80.7867187,54.8084769 C80.9538885,54.8084769 81.1005264,54.776003 81.2266369,54.7110544 C81.358613,54.6431535 81.4583268,54.5649211 81.5257812,54.4763547 C81.6166981,54.3612185 81.6768197,54.2283709 81.7061477,54.0778081 C81.7354757,53.9301976 81.7501395,53.6999285 81.7501395,53.3869941 Z M87.2535156,55.6808511 L88.0673642,55.6808511 L89.5234933,51.0842805 L88.5512742,51.0842805 L87.6802362,54.3036512 L87.6626395,54.3036512 L86.6244327,51.0842805 L85.9601562,51.0842805 L84.9219494,54.3036512 L84.9043527,54.3036512 L84.0289156,51.0842805 L83.0566964,51.0842805 L84.5172247,55.6808511 L85.3266741,55.6808511 L86.2812965,52.4614803 L86.2988932,52.4614803 L87.2535156,55.6808511 Z" id="Don’t-stop-me-now-Copy-2"></path>
        </g>
    </g>
</svg>