<?xml version="1.0" encoding="UTF-8" standalone="no"?>
<svg width="49px" height="38px" viewBox="0 0 49 38" version="1.1" xmlns="http://www.w3.org/2000/svg" xmlns:xlink="http://www.w3.org/1999/xlink">
    <!-- Generator: Sketch 43.2 (39069) - http://www.bohemiancoding.com/sketch -->
    <title>Shape</title>
    <desc>Created with Sketch.</desc>
    <defs></defs>
    <g id="Page-1" stroke="none" stroke-width="1" fill="none" fill-rule="evenodd">
        <g id="Mobile-Portrait-Copy-6" transform="translate(-18.000000, -26.000000)" fill-rule="nonzero" fill="#FFFFFF">
            <path d="M65.3467839,26.3603066 C65.3235976,26.3653284 65.3005787,26.3710977 65.277763,26.3776057 L26.7123537,34.663878 L19.1200584,34.663878 C18.5101769,34.6639391 18.0157855,35.1595881 18.0157245,35.7710209 L18.0157245,44.6281637 C18.0100935,45.0274383 18.2193381,45.3988228 18.5633348,45.6001076 C18.9073316,45.8013923 19.3327852,45.8013923 19.6767819,45.6001076 C20.0207786,45.3988228 20.2300232,45.0274383 20.2243922,44.6281637 L20.2243922,36.8781637 L25.7460616,36.8781637 L25.7460616,47.9495923 L19.1200584,47.9495923 C18.7217968,47.943947 18.3513546,48.1537239 18.1505805,48.4985956 C17.9498065,48.8434673 17.9498065,49.2700031 18.1505805,49.6148748 C18.3513546,49.9597465 18.7217968,50.1695234 19.1200584,50.163878 L26.7123537,50.163878 L32.3720648,51.3748155 L32.3720648,58.4674495 C32.3738334,58.9775339 32.7229575,59.4204064 33.2175704,59.5399941 L51.9912462,63.9685655 C52.3196105,64.0478904 52.6661288,63.9722171 52.9318345,63.7631581 C53.1975403,63.5540991 53.3532189,63.2346407 53.3544083,62.8960209 L53.3544083,55.8898825 L65.277763,58.4501504 C65.6040566,58.5179747 65.9434524,58.4344748 66.2013607,58.2229223 C66.4592689,58.0113697 66.6081147,57.694383 66.6064147,57.3603066 L66.6064147,31.8960209 C66.6110914,31.5963876 66.4944267,31.3076491 66.2830657,31.0957504 C66.0717046,30.8838518 65.7836987,30.7668903 65.4848256,30.7715789 C65.191936,30.7761605 64.9128585,30.8972036 64.7089903,31.1080788 C64.5051222,31.318954 64.3931641,31.6023865 64.397747,31.8960209 L64.397747,55.976378 L27.9547293,48.1571816 L27.9547293,36.6705745 L65.7263987,28.5572932 C66.3256135,28.4744073 66.7468364,27.9237023 66.6712273,27.3220283 C66.5956182,26.7203543 66.0513119,26.2916001 65.4503152,26.3603066 C65.4158237,26.3586841 65.3812754,26.3586841 65.3467839,26.3603066 Z M34.5807325,51.8591905 L51.1457406,55.4055075 L51.1457406,61.4947932 L34.5807325,57.6024941 L34.5807325,51.8591905 Z" id="Shape"></path>
        </g>
    </g>
</svg>