<?xml version="1.0" encoding="UTF-8" standalone="no"?>
<svg width="72px" height="72px" viewBox="0 0 72 72" version="1.1" xmlns="http://www.w3.org/2000/svg" xmlns:xlink="http://www.w3.org/1999/xlink">
    <!-- Generator: Sketch 43.2 (39069) - http://www.bohemiancoding.com/sketch -->
    <title>nice</title>
    <desc>Created with Sketch.</desc>
    <defs></defs>
    <g id="Page-1" stroke="none" stroke-width="1" fill="none" fill-rule="evenodd">
        <g id="Mobile-Portrait-Copy-6" transform="translate(-124.000000, -168.000000)" fill-rule="nonzero" fill="#FFFFFF">
            <g id="nice" transform="translate(124.000000, 168.000000)">
                <path d="M61.48,61.48 C68.4933333,54.44 72,45.9466667 72,36 C72,26.08 68.4933333,17.6 61.48,10.56 C54.44,3.52 45.9466667,0 36,0 C26.0533333,0 17.5733333,3.52 10.56,10.56 C3.52,17.6 0,26.08 0,36 C0,45.9466667 3.52,54.44 10.56,61.48 C17.5733333,68.4933333 26.0533333,72 36,72 C45.9466667,72 54.44,68.4933333 61.48,61.48 L61.48,61.48 Z M36,6.12 C44.2933333,6.12 51.3466667,9.02666667 57.16,14.84 C63.0266667,20.7066667 65.96,27.76 65.96,36 C65.96,44.2933333 63.0266667,51.36 57.16,57.2 C51.3466667,63.04 44.2933333,65.96 36,65.96 C27.76,65.96 20.7066667,63.04 14.84,57.2 C9,51.36 6.08,44.2933333 6.08,36 C6.08,27.76 9,20.7066667 14.84,14.84 C20.7066667,9.02666667 27.76,6.12 36,6.12 L36,6.12 Z M15.44,42.92 C15.4933333,43.5866667 15.7733333,44.1333333 16.28,44.56 C29.3733333,55.9733333 42.4666667,55.9733333 55.56,44.56 C56.04,44.1333333 56.3066667,43.5866667 56.36,42.92 C56.3866667,42.28 56.2,41.7066667 55.8,41.2 C55.3466667,40.72 54.8,40.4533333 54.16,40.4 C53.4933333,40.3733333 52.92,40.5733333 52.44,41 C41.4266667,50.6 30.4,50.6 19.36,41 C18.88,40.5733333 18.32,40.3733333 17.68,40.4 C17.0133333,40.4533333 16.48,40.72 16.08,41.2 C15.6266667,41.7066667 15.4133333,42.28 15.44,42.92 L15.44,42.92 Z M15.88,29.72 C15.88,31.08 16.3333333,32.2266667 17.24,33.16 C18.2266667,34.1466667 19.4,34.64 20.76,34.64 C22.12,34.64 23.2666667,34.1466667 24.2,33.16 C25.1866667,32.2266667 25.68,31.08 25.68,29.72 C25.68,28.3333333 25.1866667,27.16 24.2,26.2 C23.2666667,25.2933333 22.12,24.84 20.76,24.84 C19.4,24.84 18.2266667,25.2933333 17.24,26.2 C16.3333333,27.16 15.88,28.3333333 15.88,29.72 L15.88,29.72 Z M51.2,34.64 C52.56,34.64 53.7066667,34.1466667 54.64,33.16 C55.6266667,32.2266667 56.12,31.08 56.12,29.72 C56.12,28.3333333 55.6266667,27.16 54.64,26.2 C53.7066667,25.2933333 52.56,24.84 51.2,24.84 C49.84,24.84 48.6666667,25.2933333 47.68,26.2 C46.7733333,27.16 46.32,28.3333333 46.32,29.72 C46.32,31.08 46.7733333,32.2266667 47.68,33.16 C48.6666667,34.1466667 49.84,34.64 51.2,34.64 Z" id="Shape"></path>
            </g>
        </g>
    </g>
</svg>