<?xml version="1.0" encoding="UTF-8" standalone="no"?>
<svg width="65px" height="9px" viewBox="0 0 65 9" version="1.1" xmlns="http://www.w3.org/2000/svg" xmlns:xlink="http://www.w3.org/1999/xlink">
    <!-- Generator: Sketch 43.2 (39069) - http://www.bohemiancoding.com/sketch -->
    <title>#runhack2017</title>
    <desc>Created with Sketch.</desc>
    <defs></defs>
    <g id="Page-1" stroke="none" stroke-width="1" fill="none" fill-rule="evenodd">
        <g id="Mobile-Portrait-Copy-6" transform="translate(-237.000000, -42.000000)" fill="#FFFFFF">
            <path d="M240.056152,46.8740234 L240.297852,45.2949219 L239.223633,45.2949219 L238.981934,46.8740234 L240.056152,46.8740234 Z M239.637207,50 L239.980957,47.6044922 L238.901367,47.6044922 L238.562988,50 L237.703613,50 L238.047363,47.6044922 L237.032227,47.6044922 L237.032227,46.8740234 L238.122559,46.8740234 L238.364258,45.2949219 L237.354492,45.2949219 L237.354492,44.5644531 L238.439453,44.5644531 L238.783203,42.1689453 L239.637207,42.1689453 L239.298828,44.5644531 L240.378418,44.5644531 L240.716797,42.1689453 L241.576172,42.1689453 L241.232422,44.5644531 L242.247559,44.5644531 L242.247559,45.2949219 L241.157227,45.2949219 L240.915527,46.8740234 L241.925293,46.8740234 L241.925293,47.6044922 L240.840332,47.6044922 L240.496582,50 L239.637207,50 Z M243.004883,50 L244.127441,50 L244.127441,46.6430664 C244.134603,46.2348612 244.252766,45.939454 244.481934,45.7568359 C244.686036,45.5706371 244.931314,45.4775391 245.217773,45.4775391 C245.472006,45.4775391 245.717284,45.5706371 245.953613,45.7568359 L246.77002,44.784668 C246.43701,44.5053697 246.046714,44.362142 245.599121,44.3549805 C245.001136,44.3549805 244.517743,44.5751931 244.148926,45.015625 L244.127441,45.015625 L244.127441,44.4248047 L243.004883,44.4248047 L243.004883,50 Z M247.151367,48.1308594 C247.158529,48.7610709 247.364419,49.2373031 247.769043,49.5595703 C248.141441,49.888999 248.558591,50.0572916 249.020508,50.0644531 C249.614912,50.0644531 250.096515,49.8442405 250.465332,49.4038086 L250.486816,49.4038086 L250.486816,50 L251.609375,50 L251.609375,44.4248047 L250.486816,44.4248047 L250.486816,47.7441406 C250.486816,48.1201191 250.382976,48.4137359 250.175293,48.625 C249.97119,48.8362641 249.708009,48.9418945 249.385742,48.9418945 C249.063475,48.9418945 248.798504,48.8362641 248.59082,48.625 C248.379556,48.4137359 248.273926,48.1201191 248.273926,47.7441406 L248.273926,44.4248047 L247.151367,44.4248047 L247.151367,48.1308594 Z M253.05957,50 L254.182129,50 L254.182129,46.6806641 C254.182129,46.2903626 254.287759,45.9931651 254.499023,45.7890625 C254.706707,45.5813792 254.971678,45.4775391 255.293945,45.4775391 C255.616213,45.4775391 255.879394,45.5813792 256.083496,45.7890625 C256.291179,45.9931651 256.39502,46.2903626 256.39502,46.6806641 L256.39502,50 L257.517578,50 L257.517578,46.2939453 C257.499674,45.6565723 257.300946,45.1731787 256.921387,44.84375 C256.538247,44.517902 256.115725,44.3549805 255.653809,44.3549805 C255.055824,44.3549805 254.57243,44.5751931 254.203613,45.015625 L254.182129,45.015625 L254.182129,44.4248047 L253.05957,44.4248047 L253.05957,50 Z M258.967773,50 L260.090332,50 L260.090332,46.6806641 C260.090332,46.2903626 260.195962,45.9931651 260.407227,45.7890625 C260.61491,45.5813792 260.879881,45.4775391 261.202148,45.4775391 C261.524416,45.4775391 261.787597,45.5813792 261.991699,45.7890625 C262.199383,45.9931651 262.303223,46.2903626 262.303223,46.6806641 L262.303223,50 L263.425781,50 L263.425781,46.2939453 C263.407878,45.6565723 263.209149,45.1731787 262.82959,44.84375 C262.44645,44.517902 262.023928,44.3549805 261.562012,44.3549805 C260.964027,44.3549805 260.480633,44.5751931 260.111816,45.015625 L260.090332,45.015625 L260.090332,42.1689453 L258.967773,42.1689453 L258.967773,50 Z M267.803223,50 L267.803223,49.5058594 L267.781738,49.5058594 C267.677897,49.695639 267.516765,49.835286 267.29834,49.9248047 C267.083495,50.0179041 266.786297,50.0644531 266.406738,50.0644531 C265.783688,50.0572916 265.303875,49.8925797 264.967285,49.5703125 C264.612791,49.2552068 264.435547,48.8523788 264.435547,48.3618164 C264.435547,47.8927385 264.589517,47.5042333 264.897461,47.1962891 C265.205405,46.8811833 265.656573,46.7200521 266.250977,46.7128906 L267.803223,46.7128906 L267.803223,46.1274414 C267.810384,45.6368791 267.42904,45.3987629 266.65918,45.4130859 C266.379881,45.4130859 266.159669,45.4417315 265.998535,45.4990234 C265.83024,45.5670576 265.697754,45.6816398 265.601074,45.8427734 L264.720215,45.1713867 C265.146324,44.6127902 265.774735,44.3406575 266.605469,44.3549805 C267.307295,44.347819 267.867674,44.4803046 268.286621,44.7524414 C268.705569,45.0317397 268.91862,45.5115526 268.925781,46.1918945 L268.925781,50 L267.803223,50 Z M267.803223,48.0395508 L267.803223,47.6367188 L266.460449,47.6367188 C265.808753,47.6510417 265.486491,47.8748351 265.493652,48.3081055 C265.493652,48.4978851 265.577799,48.6590163 265.746094,48.7915039 C265.907227,48.9383145 266.173989,49.0117188 266.546387,49.0117188 C267.015465,49.0188802 267.346679,48.9633795 267.540039,48.8452148 C267.715496,48.7270502 267.803223,48.4584982 267.803223,48.0395508 Z M273.652344,48.3618164 C273.369465,48.7413756 272.991702,48.934733 272.519043,48.9418945 C271.566564,48.9597983 271.083171,48.385097 271.068848,47.2177734 C271.083171,46.0432884 271.566564,45.4632161 272.519043,45.4775391 C272.991702,45.4918621 273.369465,45.6870098 273.652344,46.0629883 L274.479492,45.3271484 C274.236001,45.0335272 273.949546,44.7989918 273.620117,44.6235352 C273.290688,44.4516593 272.909345,44.362142 272.476074,44.3549805 C271.817217,44.347819 271.238935,44.5680316 270.741211,45.015625 C270.225583,45.4703799 269.960612,46.204422 269.946289,47.2177734 C269.960612,48.2203826 270.225583,48.945473 270.741211,49.3930664 C271.238935,49.8406598 271.817217,50.0644531 272.476074,50.0644531 C272.909345,50.0572916 273.290688,49.9624033 273.620117,49.7797852 C273.949546,49.6043285 274.236001,49.3769545 274.479492,49.0976562 L273.652344,48.3618164 Z M275.258301,50 L276.380859,50 L276.380859,48.394043 L277.261719,47.3950195 L278.744141,50 L280.151367,50 L277.965332,46.6000977 L279.888184,44.4248047 L278.54541,44.4248047 L276.402344,47.0405273 L276.380859,47.0405273 L276.380859,42.1689453 L275.258301,42.1689453 L275.258301,50 Z M280.597168,50 L285.060547,50 L285.060547,48.8774414 L282.068848,48.8774414 L284.587891,45.7192383 C284.902996,45.3181946 285.060547,44.8598659 285.060547,44.3442383 C285.053385,43.6997038 284.836753,43.1679708 284.410645,42.7490234 C283.991697,42.3264953 283.445641,42.1116537 282.772461,42.1044922 C282.170895,42.1116537 281.664227,42.3229146 281.252441,42.7382812 C280.844236,43.1643902 280.625814,43.7032845 280.597168,44.3549805 L281.714355,44.3549805 C281.753744,43.9969058 281.879068,43.719402 282.090332,43.5224609 C282.294435,43.3255198 282.550454,43.2270508 282.858398,43.2270508 C283.205731,43.2342123 283.474283,43.3470041 283.664062,43.5654297 C283.846681,43.7838553 283.937988,44.0398748 283.937988,44.3334961 C283.937988,44.4444993 283.923666,44.5626621 283.89502,44.6879883 C283.852051,44.8204759 283.771485,44.9637037 283.65332,45.1176758 L280.597168,48.9418945 L280.597168,50 Z M289.260742,47.7441406 L289.260742,44.4248047 C289.239258,43.6406211 288.872237,43.2413738 288.159668,43.2270508 C287.443519,43.2413738 287.078288,43.6406211 287.063965,44.4248047 L287.063965,47.7441406 C287.078288,48.5354857 287.443519,48.934733 288.159668,48.9418945 C288.872237,48.934733 289.239258,48.5354857 289.260742,47.7441406 Z M285.941406,47.8085938 L285.941406,44.3549805 C285.948568,43.6316696 286.179522,43.0748717 286.634277,42.6845703 C287.060386,42.2978496 287.568845,42.1044922 288.159668,42.1044922 C288.768395,42.1044922 289.285805,42.2978496 289.711914,42.6845703 C290.145184,43.0748717 290.368978,43.6316696 290.383301,44.3549805 L290.383301,47.8085938 C290.368978,48.5283239 290.145184,49.0833314 289.711914,49.4736328 C289.285805,49.8603535 288.768395,50.0572916 288.159668,50.0644531 C287.568845,50.0572916 287.060386,49.8603535 286.634277,49.4736328 C286.179522,49.0833314 285.948568,48.5283239 285.941406,47.8085938 Z M292.93457,43.355957 L292.93457,50 L294.057129,50 L294.057129,42.1689453 L292.93457,42.1689453 L291.822754,42.9799805 L291.822754,44.1723633 L292.93457,43.355957 Z M296.640625,44.4248047 L297.763184,44.4248047 L297.763184,43.2915039 L299.841797,43.2915039 L297.193848,50 L298.445312,50 L301.098633,43.2915039 L301.098633,42.1689453 L296.640625,42.1689453 L296.640625,44.4248047 Z" id="#runhack2017"></path>
        </g>
    </g>
</svg>